<svg width="1440" height="900" viewBox="0 0 1440 900" fill="none" xmlns="http://www.w3.org/2000/svg">
  <defs>
    <linearGradient id="page" x1="0" y1="0" x2="1440" y2="900" gradientUnits="userSpaceOnUse">
      <stop stop-color="#10131A"/>
      <stop offset="1" stop-color="#050608"/>
    </linearGradient>
    <linearGradient id="card" x1="260" y1="140" x2="1180" y2="760" gradientUnits="userSpaceOnUse">
      <stop stop-color="#242832"/>
      <stop offset="1" stop-color="#12151B"/>
    </linearGradient>
    <linearGradient id="accent" x1="330" y1="205" x2="1130" y2="690" gradientUnits="userSpaceOnUse">
      <stop stop-color="#75F7C8"/>
      <stop offset="0.48" stop-color="#44A8FF"/>
      <stop offset="1" stop-color="#A682FF"/>
    </linearGradient>
    <filter id="shadow" x="200" y="90" width="1040" height="740" filterUnits="userSpaceOnUse" color-interpolation-filters="sRGB">
      <feDropShadow dx="0" dy="30" stdDeviation="35" flood-color="#000" flood-opacity="0.48"/>
    </filter>
  </defs>
  <rect width="1440" height="900" fill="url(#page)"/>
  <circle cx="216" cy="174" r="210" fill="#44A8FF" fill-opacity="0.12"/>
  <circle cx="1238" cy="738" r="240" fill="#A682FF" fill-opacity="0.11"/>
  <text x="720" y="90" text-anchor="middle" fill="#F8FAFC" font-family="-apple-system, BlinkMacSystemFont, 'SF Pro Display', sans-serif" font-size="44" font-weight="750">MacEverything</text>
  <text x="720" y="130" text-anchor="middle" fill="#9CA3AF" font-family="-apple-system, BlinkMacSystemFont, sans-serif" font-size="21">一个接近 Everything 手感的 macOS 文件名极速搜索工具</text>

  <g filter="url(#shadow)">
    <rect x="260" y="160" width="920" height="620" rx="28" fill="url(#card)" stroke="#FFFFFF" stroke-opacity="0.10"/>
    <rect x="260" y="160" width="920" height="64" rx="28" fill="#2B303B"/>
    <circle cx="306" cy="192" r="8" fill="#FF5F57"/>
    <circle cx="332" cy="192" r="8" fill="#FFBD2E"/>
    <circle cx="358" cy="192" r="8" fill="#28C840"/>
    <text x="720" y="199" text-anchor="middle" fill="#D1D5DB" font-family="-apple-system, BlinkMacSystemFont, sans-serif" font-size="16" font-weight="600">MacEverything</text>

    <rect x="310" y="254" width="820" height="76" rx="22" fill="#0B0D12" stroke="url(#accent)" stroke-opacity="0.75" stroke-width="2"/>
    <circle cx="352" cy="292" r="15" stroke="#75F7C8" stroke-width="4"/>
    <path d="M363 303L377 317" stroke="#75F7C8" stroke-width="5" stroke-linecap="round"/>
    <text x="404" y="302" fill="#F8FAFC" font-family="-apple-system, BlinkMacSystemFont, sans-serif" font-size="24" font-weight="650">report ext:pdf</text>
    <text x="1042" y="302" fill="#8B949E" font-family="-apple-system, BlinkMacSystemFont, sans-serif" font-size="17">⌘⇧F</text>

    <g font-family="-apple-system, BlinkMacSystemFont, sans-serif">
      <rect x="310" y="366" width="820" height="78" rx="18" fill="#1B202A"/>
      <text x="370" y="397" fill="#F8FAFC" font-size="18" font-weight="650">report-final.pdf</text>
      <text x="370" y="424" fill="#9CA3AF" font-size="14">~/Documents/Projects/Q3/report-final.pdf</text>
      <text x="1014" y="406" fill="#6B7280" font-size="14">PDF</text>
      <circle cx="336" cy="405" r="16" fill="#EF4444" fill-opacity="0.16"/>
      <text x="326" y="411" fill="#FCA5A5" font-size="14" font-weight="700">PDF</text>

      <rect x="310" y="458" width="820" height="78" rx="18" fill="#151922"/>
      <text x="370" y="489" fill="#F8FAFC" font-size="18" font-weight="650">monthly-report-template.pages</text>
      <text x="370" y="516" fill="#9CA3AF" font-size="14">~/Documents/Templates/monthly-report-template.pages</text>
      <text x="993" y="498" fill="#6B7280" font-size="14">Pages</text>
      <circle cx="336" cy="497" r="16" fill="#44A8FF" fill-opacity="0.18"/>
      <path d="M328 488H342L347 493V507H328V488Z" fill="#93C5FD"/>

      <rect x="310" y="550" width="820" height="78" rx="18" fill="#151922"/>
      <text x="370" y="581" fill="#F8FAFC" font-size="18" font-weight="650">Reports</text>
      <text x="370" y="608" fill="#9CA3AF" font-size="14">~/Documents/Reports</text>
      <text x="996" y="590" fill="#6B7280" font-size="14">Folder</text>
      <circle cx="336" cy="589" r="16" fill="#75F7C8" fill-opacity="0.16"/>
      <path d="M324 582H335L339 586H349V599H324V582Z" fill="#86EFAC"/>

      <rect x="310" y="666" width="820" height="44" rx="14" fill="#0D1017"/>
      <text x="336" y="694" fill="#8B949E" font-size="14">已索引 128,421 个项目</text>
      <text x="882" y="694" fill="#8B949E" font-size="14">Enter 打开 · ⌘↩ Finder · 右键复制路径</text>
    </g>
  </g>
</svg>
